<svg data-v-423bf9ae="" xmlns="http://www.w3.org/2000/svg" viewBox="0 0 515 90" class="iconLeft"><!----><!----><!----><g data-v-423bf9ae="" id="1504a38a-bb86-4f79-a8ae-65b647f5ded9" fill="#41393D" transform="matrix(5.825242610575063,0,0,5.825242610575063,106.91262163009335,-6.145629912522118)"><path d="M5.73 12.70C5.70 12.66 5.64 12.63 5.59 12.63C5.53 12.63 5.47 12.66 5.39 12.74C5.31 12.82 5.18 12.91 5.04 13.01C4.90 13.10 4.70 13.17 4.48 13.26C4.26 13.34 3.96 13.38 3.63 13.38C3.26 13.38 2.93 13.31 2.63 13.17C2.34 13.03 2.09 12.85 1.88 12.59C1.67 12.33 1.50 12.01 1.39 11.63C1.27 11.26 1.22 10.82 1.22 10.33C1.22 9.86 1.27 9.44 1.39 9.06C1.50 8.68 1.67 8.36 1.88 8.09C2.09 7.83 2.35 7.62 2.66 7.48C2.97 7.34 3.32 7.27 3.72 7.27C4.07 7.27 4.47 7.35 4.91 7.50C4.93 7.69 4.93 7.87 4.94 8.04C4.96 8.20 4.97 8.33 4.98 8.43C5.00 8.53 5.00 8.58 5.00 8.60C5.01 8.82 5.11 8.93 5.31 8.93L5.64 8.93L5.64 7.18L5.28 7.07C5.04 7.00 4.75 6.92 4.42 6.85C4.10 6.78 3.85 6.75 3.68 6.75C3.18 6.75 2.74 6.82 2.35 7.00C1.96 7.18 1.62 7.42 1.36 7.74C1.09 8.06 0.90 8.44 0.76 8.88C0.62 9.31 0.53 9.80 0.53 10.33C0.53 10.89 0.60 11.40 0.76 11.84C0.90 12.29 1.11 12.66 1.37 12.96C1.64 13.27 1.96 13.51 2.32 13.66C2.69 13.83 3.08 13.92 3.53 13.92C3.79 13.92 4.05 13.89 4.28 13.83C4.52 13.78 4.75 13.72 4.96 13.64C5.17 13.55 5.33 13.44 5.50 13.31C5.67 13.19 5.80 13.06 5.91 12.92ZM14.34 13.29L14.25 13.29L14.15 13.29C14.11 13.29 14.04 13.27 13.94 13.27C13.85 13.27 13.72 13.26 13.59 13.26L13.59 9.37C13.59 8.96 13.55 8.60 13.45 8.27C13.36 7.95 13.22 7.67 13.02 7.45C12.82 7.22 12.59 7.06 12.29 6.93C12.00 6.80 11.66 6.75 11.28 6.75C10.77 6.75 10.30 6.86 9.88 7.10C9.48 7.34 9.11 7.66 8.79 8.05L8.79 3.64L8.12 3.64L7.11 3.64L7.11 3.91C7.11 4.06 7.21 4.14 7.39 4.16L7.46 4.16C7.49 4.16 7.53 4.17 7.57 4.17L7.78 4.17C7.88 4.17 7.99 4.19 8.12 4.19L8.12 13.26C7.97 13.26 7.83 13.29 7.71 13.29L7.48 13.29L7.39 13.29C7.21 13.30 7.11 13.38 7.11 13.54L7.11 13.82L8.12 13.82L8.79 13.82L9.80 13.82L9.80 13.54C9.80 13.38 9.70 13.30 9.52 13.29L9.45 13.29L9.34 13.29C9.30 13.29 9.23 13.27 9.13 13.27C9.03 13.27 8.92 13.26 8.79 13.26L8.79 8.60C9.10 8.19 9.45 7.87 9.84 7.63C10.23 7.39 10.65 7.28 11.12 7.28C11.73 7.28 12.19 7.46 12.49 7.83C12.78 8.20 12.94 8.71 12.94 9.37L12.94 13.82L13.59 13.82L14.60 13.82L14.60 13.54C14.60 13.38 14.52 13.30 14.34 13.29ZM18.84 6.73C18.35 6.73 17.91 6.83 17.51 7.00C17.12 7.17 16.80 7.41 16.53 7.71C16.27 8.02 16.06 8.39 15.92 8.81C15.78 9.23 15.69 9.69 15.69 10.19C15.69 10.78 15.78 11.31 15.93 11.77C16.09 12.24 16.30 12.61 16.58 12.94C16.86 13.26 17.19 13.50 17.58 13.66C17.98 13.83 18.41 13.90 18.89 13.90C19.15 13.90 19.42 13.89 19.67 13.83C19.92 13.78 20.17 13.71 20.40 13.62C20.62 13.54 20.83 13.44 21.01 13.31C21.20 13.19 21.35 13.06 21.46 12.92L21.28 12.70C21.25 12.66 21.20 12.63 21.14 12.63C21.10 12.63 21.01 12.66 20.92 12.74C20.82 12.82 20.68 12.91 20.50 13.01C20.33 13.10 20.10 13.17 19.85 13.26C19.60 13.34 19.29 13.38 18.94 13.38C18.55 13.38 18.20 13.31 17.88 13.17C17.56 13.03 17.29 12.84 17.07 12.57C16.84 12.31 16.67 11.97 16.55 11.58C16.42 11.19 16.37 10.71 16.37 10.19L16.37 10.07L21.39 10.07C21.46 10.07 21.50 10.05 21.53 10.01C21.56 9.97 21.59 9.90 21.59 9.80C21.59 9.31 21.52 8.88 21.38 8.50C21.24 8.12 21.06 7.78 20.80 7.53C20.57 7.28 20.27 7.08 19.94 6.94C19.60 6.80 19.24 6.73 18.84 6.73ZM18.86 7.24C19.18 7.24 19.46 7.29 19.73 7.41C19.99 7.52 20.22 7.67 20.40 7.88C20.58 8.09 20.73 8.33 20.83 8.62C20.93 8.92 20.99 9.25 20.99 9.63L16.39 9.63C16.44 9.27 16.52 8.93 16.65 8.64C16.77 8.34 16.94 8.09 17.15 7.88C17.36 7.67 17.61 7.52 17.89 7.41C18.17 7.29 18.49 7.24 18.86 7.24ZM28.42 13.29L28.32 13.29L28.10 13.29C28 13.29 27.89 13.27 27.78 13.27L27.78 9.28C27.78 8.89 27.73 8.55 27.64 8.23C27.54 7.91 27.40 7.64 27.22 7.42C27.03 7.20 26.80 7.03 26.52 6.92C26.24 6.79 25.91 6.73 25.54 6.73C25.03 6.73 24.58 6.83 24.18 7.01C23.77 7.20 23.39 7.48 23.03 7.84L23.14 8.05C23.18 8.13 23.25 8.18 23.35 8.18C23.42 8.18 23.52 8.12 23.62 8.02C23.72 7.92 23.86 7.84 24.02 7.73C24.19 7.62 24.37 7.52 24.61 7.42C24.85 7.32 25.13 7.28 25.47 7.28C26.01 7.28 26.43 7.45 26.71 7.80C26.99 8.15 27.12 8.64 27.12 9.28L27.12 10.01C26.33 10.02 25.66 10.09 25.10 10.21C24.54 10.32 24.08 10.47 23.72 10.65C23.35 10.84 23.10 11.06 22.93 11.31C22.76 11.56 22.68 11.83 22.68 12.12C22.68 12.45 22.74 12.73 22.83 12.95C22.95 13.17 23.09 13.36 23.25 13.50C23.42 13.64 23.63 13.75 23.86 13.82C24.08 13.89 24.30 13.93 24.54 13.93C24.82 13.93 25.09 13.90 25.33 13.85C25.56 13.79 25.77 13.71 25.98 13.61C26.19 13.51 26.39 13.38 26.59 13.23C26.77 13.08 26.95 12.91 27.15 12.73L27.24 13.62C27.27 13.75 27.37 13.82 27.51 13.82L27.52 13.82L27.78 13.82L28.70 13.82L28.70 13.54C28.70 13.38 28.60 13.30 28.42 13.29ZM27.12 12.26C26.95 12.43 26.80 12.60 26.63 12.74C26.46 12.88 26.28 13.01 26.08 13.12C25.89 13.23 25.68 13.30 25.45 13.36C25.23 13.41 24.98 13.44 24.71 13.44C24.53 13.44 24.35 13.43 24.18 13.37C24.01 13.31 23.87 13.24 23.74 13.13C23.62 13.02 23.51 12.88 23.44 12.71C23.35 12.54 23.32 12.35 23.32 12.11C23.32 11.86 23.39 11.63 23.55 11.44C23.70 11.24 23.93 11.09 24.23 10.95C24.54 10.81 24.93 10.70 25.41 10.61C25.89 10.53 26.46 10.47 27.12 10.46ZM32.05 13.93C32.34 13.93 32.62 13.86 32.90 13.75C33.17 13.64 33.39 13.48 33.57 13.29L33.39 12.98C33.35 12.94 33.32 12.92 33.28 12.92C33.25 12.92 33.19 12.94 33.14 12.99C33.08 13.05 33.01 13.09 32.93 13.15C32.84 13.20 32.73 13.26 32.61 13.31C32.48 13.37 32.35 13.38 32.19 13.38C32.05 13.38 31.91 13.36 31.79 13.31C31.68 13.27 31.58 13.20 31.50 13.12C31.42 13.03 31.35 12.92 31.29 12.78C31.23 12.64 31.22 12.49 31.22 12.29L31.22 7.57L33.42 7.57L33.42 7.07L31.22 7.07L31.22 4.41L30.90 4.41C30.84 4.41 30.81 4.44 30.79 4.47C30.76 4.49 30.73 4.54 30.73 4.58L30.56 7.07L29.37 7.15L29.37 7.41C29.37 7.46 29.39 7.49 29.41 7.52C29.44 7.55 29.50 7.57 29.55 7.57L30.55 7.57L30.55 12.33C30.55 12.88 30.67 13.27 30.94 13.54C31.21 13.80 31.57 13.93 32.05 13.93ZM45.61 13.29L45.53 13.29L45.43 13.29C45.39 13.29 45.32 13.27 45.22 13.27C45.12 13.27 45.00 13.26 44.87 13.26L44.87 9.37C44.87 8.95 44.81 8.57 44.72 8.25C44.62 7.92 44.48 7.64 44.28 7.42C44.09 7.20 43.85 7.03 43.57 6.92C43.29 6.80 42.99 6.75 42.64 6.75C42.41 6.75 42.15 6.78 41.93 6.85C41.71 6.92 41.50 7.01 41.30 7.15C41.10 7.29 40.92 7.46 40.77 7.67C40.61 7.88 40.50 8.13 40.42 8.43C40.31 7.90 40.11 7.48 39.80 7.18C39.49 6.89 39.09 6.75 38.58 6.75C38.36 6.75 38.15 6.76 37.95 6.83C37.76 6.89 37.58 6.99 37.39 7.10C37.23 7.21 37.06 7.36 36.90 7.52C36.75 7.67 36.61 7.84 36.47 8.04L36.41 7.03C36.40 6.92 36.33 6.86 36.20 6.86L35.84 6.86L34.83 6.86L34.83 7.13C34.83 7.28 34.92 7.36 35.10 7.38L35.18 7.38C35.21 7.38 35.24 7.39 35.28 7.39L35.49 7.39C35.59 7.39 35.71 7.41 35.84 7.41L35.84 13.26C35.67 13.26 35.53 13.29 35.42 13.29L35.20 13.29L35.10 13.29C34.92 13.30 34.83 13.38 34.83 13.54L34.83 13.82L35.84 13.82L36.50 13.82L37.51 13.82L37.51 13.54C37.51 13.38 37.42 13.30 37.24 13.29L37.16 13.29L37.06 13.29C37.02 13.29 36.95 13.27 36.85 13.27C36.75 13.27 36.62 13.26 36.50 13.26L36.50 8.55C36.75 8.15 37.04 7.84 37.37 7.62C37.69 7.39 38.04 7.28 38.42 7.28C38.93 7.28 39.33 7.45 39.59 7.81C39.86 8.18 40.00 8.69 40.00 9.37L40.00 13.82L40.67 13.82L40.67 13.82L41.68 13.82L41.68 13.54C41.68 13.38 41.58 13.30 41.40 13.29L41.33 13.29L41.22 13.29C41.17 13.29 41.10 13.27 41.01 13.27C40.91 13.27 40.80 13.26 40.67 13.26L40.67 9.37C40.67 9.02 40.71 8.72 40.81 8.46C40.91 8.19 41.05 7.97 41.22 7.80C41.38 7.63 41.58 7.49 41.80 7.41C42.03 7.32 42.27 7.28 42.50 7.28C43.05 7.28 43.47 7.46 43.76 7.81C44.06 8.18 44.21 8.68 44.21 9.37L44.21 13.82L44.87 13.82L45.88 13.82L45.88 13.54C45.88 13.38 45.79 13.30 45.61 13.29ZM50.15 6.73C49.66 6.73 49.21 6.83 48.82 7.00C48.43 7.17 48.10 7.41 47.84 7.71C47.57 8.02 47.36 8.39 47.22 8.81C47.08 9.23 47.00 9.69 47.00 10.19C47.00 10.78 47.08 11.31 47.24 11.77C47.39 12.24 47.60 12.61 47.88 12.94C48.16 13.26 48.50 13.50 48.89 13.66C49.28 13.83 49.71 13.90 50.19 13.90C50.46 13.90 50.72 13.89 50.97 13.83C51.23 13.78 51.48 13.71 51.70 13.62C51.93 13.54 52.14 13.44 52.32 13.31C52.50 13.19 52.65 13.06 52.77 12.92L52.58 12.70C52.56 12.66 52.50 12.63 52.44 12.63C52.40 12.63 52.32 12.66 52.22 12.74C52.12 12.82 51.98 12.91 51.80 13.01C51.63 13.10 51.41 13.17 51.16 13.26C50.90 13.34 50.60 13.38 50.25 13.38C49.85 13.38 49.50 13.31 49.18 13.17C48.86 13.03 48.59 12.84 48.37 12.57C48.15 12.31 47.98 11.97 47.85 11.58C47.73 11.19 47.67 10.71 47.67 10.19L47.67 10.07L52.70 10.07C52.77 10.07 52.81 10.05 52.84 10.01C52.86 9.97 52.89 9.90 52.89 9.80C52.89 9.31 52.82 8.88 52.68 8.50C52.54 8.12 52.36 7.78 52.11 7.53C51.87 7.28 51.58 7.08 51.24 6.94C50.90 6.80 50.54 6.73 50.15 6.73ZM50.16 7.24C50.48 7.24 50.76 7.29 51.03 7.41C51.30 7.52 51.52 7.67 51.70 7.88C51.88 8.09 52.04 8.33 52.14 8.62C52.23 8.92 52.29 9.25 52.29 9.63L47.70 9.63C47.74 9.27 47.82 8.93 47.95 8.64C48.08 8.34 48.24 8.09 48.45 7.88C48.66 7.67 48.92 7.52 49.20 7.41C49.48 7.29 49.80 7.24 50.16 7.24ZM59.72 13.29L59.63 13.29L59.40 13.29C59.30 13.29 59.19 13.27 59.08 13.27L59.08 9.28C59.08 8.89 59.04 8.55 58.94 8.23C58.84 7.91 58.70 7.64 58.52 7.42C58.34 7.20 58.10 7.03 57.82 6.92C57.54 6.79 57.22 6.73 56.84 6.73C56.34 6.73 55.89 6.83 55.48 7.01C55.08 7.20 54.70 7.48 54.33 7.84L54.45 8.05C54.49 8.13 54.56 8.18 54.66 8.18C54.73 8.18 54.82 8.12 54.92 8.02C55.02 7.92 55.16 7.84 55.33 7.73C55.50 7.62 55.68 7.52 55.92 7.42C56.15 7.32 56.43 7.28 56.77 7.28C57.32 7.28 57.74 7.45 58.02 7.80C58.30 8.15 58.42 8.64 58.42 9.28L58.42 10.01C57.64 10.02 56.97 10.09 56.41 10.21C55.85 10.32 55.38 10.47 55.02 10.65C54.66 10.84 54.40 11.06 54.24 11.31C54.07 11.56 53.98 11.83 53.98 12.12C53.98 12.45 54.04 12.73 54.14 12.95C54.25 13.17 54.39 13.36 54.56 13.50C54.73 13.64 54.94 13.75 55.16 13.82C55.38 13.89 55.61 13.93 55.85 13.93C56.13 13.93 56.39 13.90 56.63 13.85C56.87 13.79 57.08 13.71 57.29 13.61C57.50 13.51 57.69 13.38 57.89 13.23C58.07 13.08 58.25 12.91 58.45 12.73L58.55 13.62C58.58 13.75 58.67 13.82 58.81 13.82L58.83 13.82L59.08 13.82L60.00 13.82L60.00 13.54C60.00 13.38 59.91 13.30 59.72 13.29ZM58.42 12.26C58.25 12.43 58.10 12.60 57.93 12.74C57.76 12.88 57.58 13.01 57.39 13.12C57.19 13.23 56.98 13.30 56.76 13.36C56.53 13.41 56.28 13.44 56.01 13.44C55.83 13.44 55.65 13.43 55.48 13.37C55.31 13.31 55.17 13.24 55.05 13.13C54.92 13.02 54.81 12.88 54.74 12.71C54.66 12.54 54.63 12.35 54.63 12.11C54.63 11.86 54.70 11.63 54.85 11.44C55.01 11.24 55.23 11.09 55.54 10.95C55.85 10.81 56.24 10.70 56.71 10.61C57.19 10.53 57.76 10.47 58.42 10.46ZM63.70 13.29L63.63 13.29L63.52 13.29C63.48 13.29 63.41 13.27 63.31 13.27C63.21 13.27 63.10 13.26 62.97 13.26L62.97 3.63L62.30 3.63L61.29 3.63L61.29 3.91C61.29 4.06 61.39 4.14 61.57 4.16L61.64 4.16C61.67 4.16 61.71 4.17 61.75 4.17L61.96 4.17C62.06 4.17 62.17 4.19 62.30 4.19L62.30 13.26C62.15 13.26 62.01 13.29 61.89 13.29L61.66 13.29L61.57 13.29C61.39 13.30 61.29 13.38 61.29 13.54L61.29 13.82L62.30 13.82L62.97 13.82L63.98 13.82L63.98 13.54C63.98 13.38 63.88 13.30 63.70 13.29ZM69.76 11.06C69.65 10.86 69.51 10.71 69.33 10.57C69.15 10.43 68.94 10.32 68.71 10.23C68.49 10.15 68.24 10.05 68.00 9.98C67.76 9.91 67.52 9.83 67.28 9.76C67.06 9.69 66.85 9.59 66.67 9.49C66.49 9.39 66.35 9.27 66.23 9.13C66.12 8.99 66.07 8.81 66.07 8.58C66.07 8.40 66.09 8.23 66.18 8.08C66.26 7.92 66.37 7.77 66.53 7.64C66.67 7.52 66.85 7.43 67.06 7.36C67.27 7.29 67.49 7.25 67.75 7.25C68.11 7.25 68.47 7.31 68.85 7.43C68.87 7.60 68.88 7.77 68.89 7.92C68.91 8.08 68.91 8.19 68.92 8.27C68.94 8.36 68.94 8.43 68.94 8.44C68.95 8.67 69.05 8.78 69.24 8.78L69.58 8.78L69.58 7.11C68.85 6.86 68.24 6.75 67.73 6.75C67.38 6.75 67.06 6.80 66.78 6.90C66.50 7.00 66.25 7.14 66.05 7.31C65.86 7.48 65.70 7.69 65.59 7.91C65.48 8.13 65.44 8.37 65.44 8.62C65.44 8.92 65.49 9.16 65.60 9.35C65.72 9.55 65.86 9.70 66.04 9.84C66.22 9.98 66.42 10.09 66.65 10.18C66.88 10.26 67.12 10.35 67.37 10.42C67.61 10.49 67.84 10.57 68.08 10.64C68.31 10.71 68.52 10.81 68.70 10.92C68.88 11.03 69.03 11.16 69.15 11.31C69.26 11.47 69.31 11.65 69.31 11.89C69.31 12.10 69.27 12.29 69.20 12.49C69.12 12.68 69.01 12.84 68.85 12.98C68.70 13.12 68.52 13.23 68.29 13.31C68.07 13.40 67.82 13.44 67.52 13.44C66.99 13.44 66.54 13.37 66.16 13.22C66.15 13.03 66.14 12.87 66.12 12.71C66.11 12.56 66.11 12.43 66.09 12.35C66.08 12.26 66.08 12.19 66.08 12.18C66.07 11.96 65.97 11.84 65.77 11.84L65.44 11.84L65.44 13.54C66.11 13.79 66.79 13.93 67.49 13.93C67.89 13.93 68.22 13.87 68.53 13.76C68.84 13.65 69.09 13.50 69.30 13.30C69.51 13.10 69.66 12.89 69.78 12.63C69.89 12.36 69.94 12.08 69.94 11.77C69.94 11.49 69.87 11.26 69.76 11.06Z"></path></g><defs data-v-423bf9ae=""><linearGradient data-v-423bf9ae="" gradientTransform="rotate(25)" id="030f7a77-8a03-46bb-bfe8-2a08af163ed7" x1="0%" y1="0%" x2="100%" y2="0%"><stop data-v-423bf9ae="" offset="0%" style="stop-color: rgb(206, 175, 235); stop-opacity: 1;"></stop><stop data-v-423bf9ae="" offset="100%" style="stop-color: rgb(239, 223, 180); stop-opacity: 1;"></stop></linearGradient></defs><g data-v-423bf9ae="" id="f8d8eb8d-676e-46a4-a264-2e50806647c5" transform="matrix(2.8125,0,0,2.8125,0,0)" stroke="none" fill="url(#030f7a77-8a03-46bb-bfe8-2a08af163ed7)"><path d="M0 16.024L15.976 32 32 15.976 16.024 0 0 16.024zm15.989 7.323l-7.336-7.336 14.694-.022-7.358 7.358z"></path></g><!----></svg>